#N canvas 827 239 527 327 12;
#X obj 287 58 receive 16th_note;
#X obj 93 300 mtof;
#X obj 112 224 random 8;
#X obj 93 358 osc~;
#X obj 425 210 mtof;
#X obj 425 143 random 8;
#X obj 425 257 square~;
#X obj 182 330 mtof;
#X obj 182 358 osc~;
#X obj 182 298 + 7;
#X obj 425 335 lop~;
#X floatatom 440 300 5 0 0 0 - - - 0;
#X floatatom 754 210 11 0 0 0 - - - 36;
#N canvas 0 0 450 250 (subpatch) 0;
#X array Chords_Melody 6 float 2;
#X coords 0 200 6 0 221 140 1;
#X restore 933 122 graph;
#N canvas 0 0 450 250 (subpatch) 0;
#X array Chords_Bass 3 float 2;
#X coords 0 100 3 0 121 140 1;
#X restore 1162 122 graph;
#X obj 997 495 send ON;
#X obj 921 495 send OFF;
#X obj 904 444 receive GLOBAL ON;
#X obj 904 607 list-drip;
#X obj 904 649 t f b;
#X obj 904 565 t l b;
#X obj 936 691 f;
#X obj 997 692 + 1;
#X msg 985 614 0;
#X obj 904 730 tabwrite Chords_Melody;
#X obj 1158 607 list-drip;
#X obj 1158 649 t f b;
#X obj 1158 565 t l b;
#X obj 1190 691 f;
#X obj 1251 692 + 1;
#X msg 1239 614 0;
#X obj 1158 730 tabwrite Chords_Bass;
#X obj 1058 321 send GLOBAL ON;
#X obj 1058 290 tgl 25 0 empty empty empty 17 7 0 10 #191919 #e1e1e1 #e1e1e1 0 1;
#X obj 2027 189 receive ON;
#X obj 2114 189 receive 4th_time;
#X obj 2114 221 * 2;
#X floatatom 2114 254 5 0 0 0 - - - 0;
#X obj 2091 283 metro;
#X obj 2091 314 bng 25 250 50 0 empty empty empty 17 7 0 10 #191919 #e1e1e1 #e1e1e1;
#X obj 2091 349 send half_note;
#X obj 2289 189 receive ON;
#X obj 2373 189 receive 4th_time;
#X floatatom 2373 254 5 0 0 0 - - - 0;
#X obj 2350 283 metro;
#X obj 2350 314 bng 25 250 50 0 empty empty empty 17 7 0 10 #191919 #e1e1e1 #e1e1e1;
#X obj 2555 189 receive ON;
#X obj 2637 189 receive 4th_time;
#X floatatom 2637 254 5 0 0 0 - - - 0;
#X obj 2614 283 metro;
#X obj 2614 314 bng 25 250 50 0 empty empty empty 17 7 0 10 #191919 #e1e1e1 #e1e1e1;
#X obj 2637 221 / 4;
#X obj 2687 283 send 16th_time;
#X obj 2614 355 send 16th_note;
#X obj 2350 355 send 8th_note;
#X obj 2419 283 send 8th_time;
#X obj 2373 221 / 2;
#X obj 1468 346 /;
#X floatatom 1468 379 5 0 0 0 - - - 0;
#X obj 1537 306 t b f;
#X msg 1468 239 60000;
#X msg 1537 240 60;
#X floatatom 1537 273 5 0 0 0 - - - 0;
#X obj 1468 412 send 4th_time;
#X obj 1499 199 receive ON;
#X floatatom 179 48 7 0 0 0 - - - 36;
#X obj 72 686 dac~;
#X obj 69 644 *~ 1;
#X obj 94 644 *~ 1;
#X obj 69 601 vstplugin~;
#X obj 75 439 vsl 17 128 0 1 0 0 empty empty empty 0 -9 0 10 #8c0000 #e1e1e1 #e1e1e1 0 1;
#X obj 93 550 *~;
#X msg -266 512 wet \$1;
#X msg -201 512 dry \$1;
#X msg -139 512 roomsize \$1;
#X obj -201 439 receive ON;
#X msg -266 477 1;
#X msg -201 477 0.25;
#X msg -139 477 0.95;
#X obj 112 247 tabread Chords_Melody;
#X obj 425 166 tabread Chords_Bass;
#X msg 1157 529 40 42 44;
#X text 754 165 ~1000, f 6;
#X msg -201 547 open -e ValhallaSupermassive.vst3;
#X obj 460 1016 dac~;
#X obj 446 819 *~ 1;
#X obj 471 819 *~ 1;
#X obj 446 782 vstplugin~;
#X obj 463 614 vsl 17 128 0 1 0 0 empty empty empty 0 -9 0 10 #8c0000 #e1e1e1 #e1e1e1 0 1;
#X obj 426 722 *~;
#X obj 515 722 *~;
#X obj 501 857 vsl 17 128 0 2 0 0 empty empty empty 0 -9 0 10 #8c0000 #e1e1e1 #e1e1e1 0 1;
#X obj 460 966 *~;
#X obj 557 614 vsl 17 128 0 1 0 0 empty empty empty 0 -9 0 10 #8c0000 #e1e1e1 #e1e1e1 0 1;
#X msg 441 1342 wet \$1;
#X msg 506 1342 dry \$1;
#X msg 568 1342 roomsize \$1;
#X obj 506 1269 receive ON;
#X msg 441 1307 1;
#X msg 506 1307 0.25;
#X msg 568 1307 0.95;
#X msg 506 1377 open -e ValhallaSupermassive.vst3;
#N canvas 733 172 450 300 EuclideanRhythm 0;
#X obj 921 931 f;
#X obj 975 931 + 1;
#X obj 921 965 % 16;
#X obj 921 1002 t f f;
#X obj 921 1038 + 0;
#X obj 921 1076 *;
#X obj 921 1108 % 16;
#X obj 921 1246 <;
#X obj 921 1318 bng 25 250 50 0 empty empty empty 17 7 0 10 #191919 #e1e1e1 #e1e1e1;
#X floatatom 777 1028 11 0 0 0 - - - 24;
#X obj 921 893 inlet;
#X obj 921 1284 select 1;
#X obj 761 1284 select 1;
#X obj 761 1246 >;
#X obj 761 1320 bng 25 250 50 0 empty empty empty 17 7 0 10 #191919 #e1e1e1 #e1e1e1;
#X obj 761 1375 outlet;
#X obj 921 1376 outlet;
#X obj 777 986 inlet;
#X connect 0 0 1 0 48......................rA.........a....z9+++uM....s++++aC...P6++++;
#X connect 0 0 2 0 32.................D....7++++OA....+++++i.....;
#X connect 1 0 0 1 48......................r9+++O.....q++++29+++u0++++s++++a8+++e6++++;
#X connect 2 0 3 0;
#X connect 3 0 4 0;
#X connect 4 0 5 0;
#X connect 5 0 6 0;
#X connect 6 0 7 0;
#X connect 6 0 13 0;
#X connect 7 0 11 0;
#X connect 8 0 16 0;
#X connect 9 0 5 1;
#X connect 9 0 7 1;
#X connect 9 0 13 1;
#X connect 10 0 0 0;
#X connect 11 0 8 0;
#X connect 12 0 14 0;
#X connect 13 0 12 0;
#X connect 14 0 15 0;
#X connect 17 0 9 0;
#X restore 179 101 pd EuclideanRhythm;
#X obj 161 683 dac~;
#X obj 158 641 *~ 1;
#X obj 183 641 *~ 1;
#X obj 158 598 vstplugin~;
#X obj 164 439 vsl 17 128 0 1 0 0 empty empty empty 0 -9 0 10 #8c0000 #e1e1e1 #e1e1e1 0 1;
#X obj 182 547 *~;
#X obj 619 220 receive 8th_note;
#X msg 904 527 50 52 54 56 58 60;
#N canvas 733 172 450 300 ChaosGenerator 0;
#X obj 607 159 noise~;
#X obj 605 201 snapshot~;
#X floatatom 605 238 5 0 0 0 - - - 0;
#X msg 694 166 set 5 \, bang;
#X obj 605 275 *;
#X obj 659 59 inlet~;
#X obj 821 238 inlet;
#X obj 440 300 outlet;
#X connect 0 0 1 0 32.................K....7+++++B....+++++aA....;
#X connect 1 0 2 0 32.................I.........PB.........DA....;
#X connect 2 0 4 0 32.................J.........fB.........LA....;
#X connect 3 0 1 0 32.................K....ry++++B....67+++aA....;
#X connect 4 0 7 0;
#X connect 5 0 1 0;
#X connect 6 0 4 1;
#X restore 619 259 pd ChaosGenerator;
#X connect 0 0 102 1;
#X connect 1 0 3 0;
#X connect 2 0 79 0 32.................B.........f..........L.....;
#X connect 3 0 71 0;
#X connect 4 0 6 0;
#X connect 5 0 80 0;
#X connect 6 0 10 0;
#X connect 7 0 8 0;
#X connect 8 0 108 0;
#X connect 9 0 7 0;
#X connect 10 0 89 0;
#X connect 11 0 10 1;
#X connect 12 0 111 1;
#X connect 17 0 16 0 32.................P....DA....D....Q....7A....;
#X connect 17 0 15 0 32.................P....zE....D....cA...7A....;
#X connect 17 0 81 0 48.................U....HJ...PE....hB...jB...fv....o....HL...vd....;
#X connect 17 0 110 0;
#X connect 18 0 19 0 32.................K.........vB.........XA....;
#X connect 19 0 24 0 32.................e.........vG.........zC....;
#X connect 19 1 21 0 32.................K....PA...vB....T....XA....;
#X connect 20 0 18 0 32.................K.........vB.........XA....;
#X connect 20 1 23 0 32.................O....XD...vC....FA...zA....;
#X connect 21 0 22 0 48......................7A.........e....39+++eO....t++++2C...f6++++;
#X connect 21 0 24 1 32.................J....LF...fB....iA...LA....;
#X connect 22 0 21 1 48......................f9+++O.....n++++y9++++y++++r+++++7+++O6++++;
#X connect 23 0 21 1 32.................c....r8+++eG....a++++mC....;
#X connect 25 0 26 0 32.................K.........vB.........XA....;
#X connect 26 0 31 0 32.................e.........vG.........zC....;
#X connect 26 1 28 0 32.................K....PA...vB....T....XA....;
#X connect 27 0 25 0 32.................K.........vB.........XA....;
#X connect 27 1 30 0 32.................O....XD...vC....FA...zA....;
#X connect 28 0 29 0 48......................7A.........e....39+++eO....t++++2C...f6++++;
#X connect 28 0 31 1 32.................J....PE...fB....TA...LA....;
#X connect 29 0 28 1 48......................f9+++O.....n++++y9++++y++++r+++++7+++O6++++;
#X connect 30 0 28 1 32.................c....r8+++eG....a++++mC....;
#X connect 33 0 32 0 32.................C.........v..........X.....;
#X connect 34 0 38 0 32.................k.....D...PI.....A...nD....;
#X connect 35 0 36 0 32.................F.........fA.........v.....;
#X connect 36 0 37 0 32.................G.........vA.........z.....;
#X connect 37 0 38 1 32.................F.........fA.........r.....;
#X connect 38 0 39 0 32.................F.........fA.........r.....;
#X connect 39 0 40 0 32.................E.........PA.........n.....;
#X connect 41 0 44 0 32.................k....zC...PI....8....nD....;
#X connect 42 0 56 0 32.................F.........fA.........v.....;
#X connect 43 0 44 1 32.................F.........fA.........r.....;
#X connect 43 0 55 0 32.................F....3B...fA....t....r.....;
#X connect 44 0 45 0 32.................F.........fA.........r.....;
#X connect 45 0 54 0 32.................H..........B..........A....;
#X connect 46 0 49 0 32.................k....rC...PI....6....nD....;
#X connect 47 0 51 0 32.................F.........fA.........v.....;
#X connect 48 0 49 1 32.................F.........fA.........r.....;
#X connect 48 0 52 0 32.................F....HC...fA....x....r.....;
#X connect 49 0 50 0 32.................F.........fA.........r.....;
#X connect 50 0 53 0 32.................H..........B..........A....;
#X connect 51 0 48 0 32.................G.........vA.........z.....;
#X connect 56 0 43 0 32.................G.........vA.........z.....;
#X connect 57 0 58 0 32.................G.........vA.........z.....;
#X connect 58 0 63 0 32.................K.........vB.........TA....;
#X connect 59 0 57 0 32.................J....v6+++uB....79+++SA....;
#X connect 59 1 57 1 32.................J....r6+++uB....69+++SA....;
#X connect 60 0 57 0 32.................r..........K.........bE....;
#X connect 61 0 62 0 32.................G.........vA.........z.....;
#X connect 62 0 59 0 32.................H..........B.........7.....;
#X connect 64 0 60 0 32.................J....H9+++uB....h++++SA....;
#X connect 64 0 61 0 32.................K....XB...vB....l....TA....;
#X connect 65 0 102 0;
#X connect 67 0 66 0;
#X connect 68 0 66 1;
#X connect 69 0 67 0;
#X connect 69 1 68 0;
#X connect 70 0 71 1;
#X connect 71 0 69 0;
#X connect 71 0 69 1;
#X connect 72 0 83 0 32.................H....DD....B....AA...7.....;
#X connect 73 0 83 0 32.................H..........B.........7.....;
#X connect 74 0 83 0 32.................H....L7+++OB....C+++++.....;
#X connect 75 0 76 0 32.................I.....7+++eB.....++++KA....;
#X connect 75 0 78 0 32.................I....3C...PB....9....HA....;
#X connect 75 0 77 0 32.................I.........PB.........HA....;
#X connect 76 0 72 0;
#X connect 77 0 73 0 32.................H..........B.........7.....;
#X connect 78 0 74 0 32.................H..........B.........7.....;
#X connect 79 0 1 0 32.................Q....39+++eD....t++++GB....;
#X connect 79 0 9 0 32.................P....XD....D....FA...7A....;
#X connect 80 0 4 0;
#X connect 81 0 27 0 32.................A.........P..........H.....;
#X connect 83 0 69 0;
#X connect 83 0 106 0;
#X connect 85 0 92 0 32.................5....v....fN....L....PG....;
#X connect 86 0 92 0 32.................5....P++++uN....z++++SG....;
#X connect 87 0 85 0 32.................I.........PB.........DA....;
#X connect 87 1 86 0 32.................I.........PB.........DA....;
#X connect 88 0 89 1 48......................X++++O.....1++++29+++O6++++s++++y9+++e6++++;
#X connect 89 0 87 0 32.................T....PA....E....T....fB....;
#X connect 89 0 87 1 32.................T....XD....E....FA...fB....;
#X connect 90 0 87 0 32.................T....v6+++OE....79+++iB....;
#X connect 90 0 87 1 32.................T....39+++OE....t++++iB....;
#X connect 91 0 92 1 48......................P++++O.....z++++69+++O5++++t++++i9+++u6++++;
#X connect 92 0 84 0;
#X connect 92 0 84 1;
#X connect 93 0 90 1 48......................P++++O.....z++++29++++4++++s++++e9+++e6++++;
#X connect 94 0 101 0 32.................H....DD....B....AA...7.....;
#X connect 95 0 101 0 32.................H..........B.........7.....;
#X connect 96 0 101 0 32.................H....L7+++OB....C+++++.....;
#X connect 97 0 99 0 32.................I.........PB.........HA....;
#X connect 97 0 100 0 32.................I....3C...PB....9....HA....;
#X connect 97 0 98 0 32.................I.....7+++eB.....++++KA....;
#X connect 98 0 94 0;
#X connect 99 0 95 0 32.................H..........B.........7.....;
#X connect 100 0 96 0 32.................H..........B.........7.....;
#X connect 101 0 87 0;
#X connect 102 0 2 0 32.................z....36+++OM....99+++eF....;
#X connect 102 1 5 0 32.................K....nH...vB....JB...XA....;
#X connect 104 0 103 0;
#X connect 105 0 103 1;
#X connect 106 0 104 0;
#X connect 106 1 105 0;
#X connect 107 0 108 1;
#X connect 108 0 106 0;
#X connect 108 0 106 1;
#X connect 109 0 111 0;
#X connect 110 0 20 0 32.................A.........P..........H.....;
#X connect 111 0 11 0;
